<?xml version="1.0" encoding="UTF-8" standalone="no"?>
<svg
        xmlns:dc="http://purl.org/dc/elements/1.1/"
        xmlns:cc="http://creativecommons.org/ns#"
        xmlns:rdf="http://www.w3.org/1999/02/22-rdf-syntax-ns#"
        xmlns="http://www.w3.org/2000/svg"
        xmlns:xlink="http://www.w3.org/1999/xlink"
        xmlns:sodipodi="http://sodipodi.sourceforge.net/DTD/sodipodi-0.dtd"
        xmlns:inkscape="http://www.inkscape.org/namespaces/inkscape"
        sodipodi:docname="logo.svg"
        inkscape:version="1.0 (4035a4fb49, 2020-05-01)"
        id="svg1058"
        version="1.1"
        viewBox="0 0 55.562498 78.581248"
        height="512"
        width="512">
    <defs
            id="defs1052">
        <linearGradient
                id="linearGradient1664"
                inkscape:collect="always">
            <stop
                    id="stop1660"
                    offset="0"
                    style="stop-color:#1c71d8;stop-opacity:1"/>
            <stop
                    id="stop1662"
                    offset="1"
                    style="stop-color:#ffffff;stop-opacity:1"/>
        </linearGradient>
        <linearGradient
                y2="-93.913315"
                x2="29.710697"
                y1="77.178017"
                x1="29.710697"
                gradientUnits="userSpaceOnUse"
                id="linearGradient1668"
                xlink:href="#linearGradient1664"
                inkscape:collect="always"/>
    </defs>
    <sodipodi:namedview
            inkscape:window-maximized="1"
            inkscape:window-y="-8"
            inkscape:window-x="-8"
            inkscape:window-height="1017"
            inkscape:window-width="1920"
            units="px"
            showgrid="false"
            inkscape:document-rotation="0"
            inkscape:current-layer="layer1"
            inkscape:document-units="mm"
            inkscape:cy="277.99481"
            inkscape:cx="273.18446"
            inkscape:zoom="0.35"
            inkscape:pageshadow="2"
            inkscape:pageopacity="0.0"
            borderopacity="1.0"
            bordercolor="#666666"
            pagecolor="#ffffff"
            id="base"/>
    <metadata
            id="metadata1055">
        <rdf:RDF>
            <cc:Work
                    rdf:about="">
                <dc:format>image/svg+xml</dc:format>
                <dc:type
                        rdf:resource="http://purl.org/dc/dcmitype/StillImage"/>
                <dc:title></dc:title>
            </cc:Work>
        </rdf:RDF>
    </metadata>
    <g
            id="layer1"
            inkscape:groupmode="layer"
            inkscape:label="Ebene 1">
        <rect
                ry="5.271265"
                y="1.53479"
                x="-9.9745846"
                height="75.511665"
                width="75.511665"
                id="rect1637"
                style="fill:url(#linearGradient1668);fill-opacity:1;stroke-width:0.112041;stroke-miterlimit:4;stroke-dasharray:none"/>
        <path
                style="stroke-width:0.116596;stroke-miterlimit:4;stroke-dasharray:none;fill:#ffffff"
                d="M 26.92595,26.232268 6.2781497,44.63259 v 19.859261 a 1.7918576,1.9387893 0 0 0 1.791858,1.938789 L 20.61973,66.3955 a 1.7918576,1.9387893 0 0 0 1.7829,-1.93879 V 52.859115 a 1.7918576,1.9387893 0 0 1 1.791857,-1.938789 h 7.167431 a 1.7918576,1.9387893 0 0 1 1.791857,1.938789 v 11.589114 a 1.7918576,1.9387893 0 0 0 1.791858,1.944848 l 12.545243,0.03757 a 1.7918576,1.9387893 0 0 0 1.791858,-1.938789 V 44.619261 L 28.639414,26.232268 a 1.3651715,1.4771151 0 0 0 -1.713464,0 z M 59.541118,38.73867 50.178662,30.388547 V 13.604692 A 1.3438932,1.454092 0 0 0 48.834769,12.1506 h -6.271501 a 1.3438932,1.454092 0 0 0 -1.343893,1.454092 v 8.798467 l -10.026564,-8.9257 a 5.3755728,5.8163679 0 0 0 -6.831457,0 L -3.9869543,38.73867 a 1.3438932,1.454092 0 0 0 -0.179186,2.047847 l 2.855773,3.756404 a 1.3438932,1.454092 0 0 0 1.89376899,0.197514 L 26.92595,21.264121 a 1.3651715,1.4771151 0 0 1 1.713464,0 l 26.343667,23.476314 a 1.3438932,1.454092 0 0 0 1.892649,-0.193878 l 2.855773,-3.756405 A 1.3438932,1.454092 0 0 0 59.541118,38.73867 Z"
                id="path1033"/>
    </g>
</svg>
